<svg width="25" height="25" viewBox="0 0 25 25" fill="none" xmlns="http://www.w3.org/2000/svg">
<path d="M7.49998 20.8333H3.33331V8.33333H7.49998V20.8333ZM5.41748 6.66667C4.26498 6.66667 3.33331 5.7325 3.33331 4.5825C3.33331 3.4325 4.26665 2.5 5.41748 2.5C6.56581 2.5 7.49998 3.43417 7.49998 4.5825C7.49998 5.7325 6.56581 6.66667 5.41748 6.66667ZM22.5 20.8333H18.4941V14.75C18.4941 13.2992 18.4666 11.4333 16.4116 11.4333C14.3258 11.4333 14.005 13.0133 14.005 14.645V20.8333H9.99998V8.32417H13.845V10.0333H13.8991C14.4341 9.05 15.7416 8.01333 17.6916 8.01333C21.75 8.01333 22.5 10.6042 22.5 13.9725V20.8333Z" fill="white"/>
</svg>
