<svg width="48" height="48" viewBox="0 0 48 48" fill="none" xmlns="http://www.w3.org/2000/svg">
<g clip-path="url(#clip0_309_190)" filter="url(#filter0_d_309_190)">
<path d="M42.9707 29.5026L37.9981 24.53C36.6272 23.1592 34.3964 23.1592 33.0255 24.53L30.7653 26.7903C29.7267 27.8289 28.0367 27.8285 26.9985 26.7906L17.2016 16.9854C16.1606 15.9444 16.1604 14.2595 17.2016 13.2183C17.5657 12.8542 18.6111 11.8088 19.4618 10.9581C20.8268 9.59321 20.8458 7.36938 19.4605 5.98422L14.4893 1.02859C13.1183 -0.342269 10.8876 -0.342269 9.52034 1.025C8.49721 2.03922 8.16721 2.36641 7.70846 2.82117C2.7647 7.76485 2.7647 15.8088 7.70822 20.7524L23.2311 36.2833C28.1864 41.2387 36.2067 41.2391 41.1624 36.2833L42.9707 34.4751C44.3417 33.1042 44.3417 30.8735 42.9707 29.5026ZM11.1742 2.68609C11.6312 2.22914 12.3746 2.22906 12.8331 2.68734L17.8043 7.64297C18.2624 8.10102 18.2624 8.84235 17.8043 9.30048L16.9755 10.1292L10.3497 3.50344L11.1742 2.68609ZM24.8889 34.626L9.36596 19.0949C5.54111 15.2701 5.33088 9.26423 8.7194 5.18821L15.326 11.7948C13.59 13.7627 13.6624 16.7613 15.5437 18.6427L25.3403 28.4474C25.3404 28.4475 25.3405 28.4477 25.3406 28.4478C27.2199 30.3271 30.2184 30.4042 32.1887 28.6659L38.7955 35.2726C34.7324 38.6553 28.7401 38.4772 24.8889 34.626ZM41.3133 32.8176L40.4845 33.6464L33.8544 27.0163L34.683 26.1875C35.1401 25.7306 35.8836 25.7305 36.3406 26.1875L41.3132 31.1601C41.7702 31.6171 41.7702 32.3607 41.3133 32.8176Z" fill="white"/>
</g>
<defs>
<filter id="filter0_d_309_190" x="0" y="0" width="48" height="48" filterUnits="userSpaceOnUse" color-interpolation-filters="sRGB">
<feFlood flood-opacity="0" result="BackgroundImageFix"/>
<feColorMatrix in="SourceAlpha" type="matrix" values="0 0 0 0 0 0 0 0 0 0 0 0 0 0 0 0 0 0 127 0" result="hardAlpha"/>
<feOffset dy="4"/>
<feGaussianBlur stdDeviation="2"/>
<feComposite in2="hardAlpha" operator="out"/>
<feColorMatrix type="matrix" values="0 0 0 0 0 0 0 0 0 0 0 0 0 0 0 0 0 0 0.25 0"/>
<feBlend mode="normal" in2="BackgroundImageFix" result="effect1_dropShadow_309_190"/>
<feBlend mode="normal" in="SourceGraphic" in2="effect1_dropShadow_309_190" result="shape"/>
</filter>
<clipPath id="clip0_309_190">
<rect width="40" height="40" fill="white" transform="translate(4)"/>
</clipPath>
</defs>
</svg>
