<svg width="25" height="25" viewBox="0 0 25 25" fill="none" xmlns="http://www.w3.org/2000/svg">
<g clip-path="url(#clip0_309_12)">
<path d="M24.7136 11.8089C24.7133 11.8086 24.713 11.8082 24.7127 11.8079L19.61 6.72981C19.2277 6.34939 18.6094 6.3508 18.2289 6.73313C17.8484 7.1154 17.8499 7.73371 18.2321 8.11418L21.6581 11.5235H0.976562C0.437207 11.5235 0 11.9608 0 12.5001C0 13.0395 0.437207 13.4767 0.976562 13.4767H21.6581L18.2322 16.886C17.8499 17.2665 17.8484 17.8848 18.2289 18.2671C18.6094 18.6495 19.2278 18.6508 19.61 18.2704L24.7127 13.1923C24.713 13.192 24.7133 13.1917 24.7136 13.1914C25.0961 12.8096 25.0949 12.1893 24.7136 11.8089Z" fill="white"/>
</g>
<defs>
<clipPath id="clip0_309_12">
<rect width="25" height="25" fill="white"/>
</clipPath>
</defs>
</svg>
